<?xml version="1.0" encoding="UTF-8"?>
<svg width="20px" height="20px" viewBox="0 0 20 20" version="1.1" xmlns="http://www.w3.org/2000/svg" xmlns:xlink="http://www.w3.org/1999/xlink">
    <!-- Generator: sketchtool 50.2 (55047) - http://www.bohemiancoding.com/sketch -->
    <title>5C142A5D-4509-4733-BF8F-911DF373370B</title>
    <desc>Created with sketchtool.</desc>
    <defs>
        <path d="M10.148,10.354 C10.246,10.453 10.374,10.5 10.502,10.5 C10.63,10.5 10.758,10.452 10.856,10.354 L13.856,7.354 C14.051,7.16 14.051,6.842 13.856,6.648 L13.854,6.648 C13.659,6.453 13.342,6.453 13.147,6.648 L11.001,8.793 L11.001,0.5 C11.001,0.224 10.777,0 10.501,0 C10.225,0 10.001,0.224 10.001,0.5 L10.001,8.793 L7.855,6.648 C7.66,6.453 7.343,6.453 7.148,6.648 C6.953,6.842 6.953,7.16 7.148,7.354 L10.148,10.354 Z M17.5,14.002 L3.5,14.002 C3.224,14.002 3,14.225 3,14.502 C3,14.778 3.224,15.002 3.5,15.002 L17.5,15.002 C17.776,15.002 18,14.778 18,14.502 C18,14.225 17.776,14.002 17.5,14.002 L17.5,14.002 Z M17.5,16.002 L16.5,16.002 C16.224,16.002 16,16.225 16,16.502 C16,16.778 16.224,17.002 16.5,17.002 L17.5,17.002 C17.776,17.002 18,16.778 18,16.502 C18,16.225 17.776,16.002 17.5,16.002 L17.5,16.002 Z M19.5,12.383 L17.394,8.172 C17.066,7.515 16.234,7.002 15.5,7.002 C15.224,7.002 15,7.225 15,7.502 C15,7.778 15.224,8.002 15.5,8.002 C15.862,8.002 16.338,8.296 16.5,8.62 L18.606,12.831 C18.816,13.25 19,14.032 19,14.502 L19,17.502 C19,17.778 18.776,18.002 18.5,18.002 L2.5,18.002 C2.224,18.002 2,17.778 2,17.502 L2,14.502 C2,14.032 2.184,13.25 2.394,12.831 L4.5,8.62 C4.662,8.296 5.138,8.002 5.5,8.002 C5.776,8.002 6,7.778 6,7.502 C6,7.225 5.776,7.002 5.5,7.002 C4.766,7.002 3.934,7.515 3.606,8.172 L1.5,12.383 C1.22,12.945 1,13.875 1,14.502 L1,17.502 C1,18.329 1.673,19.002 2.5,19.002 L18.5,19.002 C19.327,19.002 20,18.329 20,17.502 L20,14.502 C20,13.875 19.78,12.945 19.5,12.383 L19.5,12.383 Z" id="path-1"></path>
    </defs>
    <g id="Symbols" stroke="none" stroke-width="1" fill="none" fill-rule="evenodd">
        <g id="download-list">
            <mask id="mask-2" fill="white">
                <use xlink:href="#path-1"></use>
            </mask>
            <use id="download-list-ico1" fill="#444444" xlink:href="#path-1"></use>
            <g id="Inputs/imput-dark" mask="url(#mask-2)" fill="#444444">
                <rect id="bkg" x="0" y="0" width="20" height="20"></rect>
            </g>
        </g>
    </g>
</svg>