<svg id="Capa_1" enable-background="new 0 0 512.013 512.013" height="512" viewBox="0 0 512.013 512.013" width="512" xmlns="http://www.w3.org/2000/svg"><path d="m509.289 326.378c-7.195-16.507-26.478-24.083-42.984-16.889-37.04 16.134-77.723 20.662-117.65 13.092-39.437-7.475-75.411-26.555-104.033-55.176-28.622-28.623-47.702-64.597-55.176-104.034-7.569-39.926-3.042-80.609 13.09-117.65 3.614-8.296 3.614-17.808.001-26.096-3.485-7.996-9.876-14.157-17.996-17.346-8.119-3.19-16.994-3.027-24.988.458-8.41 3.663-16.708 7.802-24.662 12.302-4.807 2.719-6.5 8.82-3.781 13.627s8.82 6.5 13.627 3.781c7.354-4.16 15.026-7.986 22.805-11.375 3.099-1.351 6.539-1.413 9.686-.177s5.624 3.624 6.975 6.723c1.42 3.258 1.419 6.852-.003 10.117-17.743 40.74-22.724 85.473-14.404 129.362 8.226 43.399 29.21 82.976 60.684 114.451 31.475 31.474 71.051 52.458 114.451 60.684 43.891 8.319 88.623 3.338 129.364-14.408 6.397-2.788 13.872.147 16.661 6.545 1.42 3.259 1.419 6.853-.002 10.118-6.12 14.052-13.573 27.551-22.152 40.121-8.7 12.747-18.571 24.669-29.338 35.437-46.41 46.41-108.112 71.969-173.74 71.969s-127.329-25.559-173.738-71.967c-46.411-46.41-71.97-108.112-71.97-173.74 0-58.138 20.637-114.496 58.11-158.691 3.572-4.213 3.052-10.523-1.16-14.095s-10.523-3.052-14.095 1.16c-40.534 47.804-62.856 108.755-62.856 171.625 0 70.97 27.64 137.695 77.827 187.883 50.187 50.186 116.91 77.825 187.88 77.825s137.694-27.639 187.883-77.827c11.645-11.645 22.315-24.532 31.715-38.304 9.285-13.604 17.35-28.209 23.971-43.412 3.61-8.297 3.61-17.807-.002-26.093z"/><path d="m336.192 461.281c1.052 0 2.122-.167 3.175-.52 23.755-7.949 45.918-19.718 65.873-34.98 4.387-3.355 5.223-9.631 1.868-14.019-3.355-4.386-9.631-5.222-14.019-1.868-18.2 13.92-38.41 24.653-60.069 31.901-5.238 1.752-8.063 7.419-6.31 12.656 1.401 4.186 5.299 6.83 9.482 6.83z"/><path d="m291.987 471.05c.44 0 .886-.029 1.334-.089 5.474-.73 9.32-5.759 8.59-11.234s-5.756-9.326-11.234-8.59l-.007.001c-5.474.73-9.317 5.759-8.587 11.233.672 5.026 4.968 8.679 9.904 8.679z"/><path d="m102.646 59.372c2.089 0 4.196-.652 5.996-2.001 4.418-3.314 5.313-9.582 2-14s-9.581-5.314-14-2l-.006.004c-4.418 3.314-5.311 9.58-1.997 13.998 1.964 2.619 4.966 3.999 8.007 3.999z"/></svg>