<svg width="10" xmlns="http://www.w3.org/2000/svg" height="64" viewBox="0 0 64 64"><path fill="#1D1D1B" d="M58.95 54.978c-.019-.138-.033-.271-.08-.404-.049-.14-.125-.258-.203-.382-.046-.072-.063-.155-.118-.225-.023-.025-.052-.037-.076-.061-.094-.106-.211-.188-.326-.271-.101-.073-.193-.152-.304-.203-.105-.052-.218-.069-.333-.101-.144-.039-.282-.081-.433-.087-.03-.002-.059-.02-.092-.02-16.316 0-30.631-12.55-30.631-26.857 0-9.17 4.763-17.64 12.741-22.653.041-.025.062-.069.1-.097.15-.108.281-.229.396-.374a1.87 1.87 0 0 0 .141-.213c.085-.142.152-.287.199-.448a1.71 1.71 0 0 0 .061-.306c.015-.089.054-.167.054-.26 0-.067-.031-.124-.037-.189a1.834 1.834 0 0 0-.069-.337 1.824 1.824 0 0 0-.158-.415c-.022-.045-.024-.097-.053-.142-.039-.062-.1-.095-.143-.152a2.022 2.022 0 0 0-.278-.292 1.937 1.937 0 0 0-.341-.229 1.71 1.71 0 0 0-.302-.134 1.956 1.956 0 0 0-.473-.095C38.135.027 38.087 0 38.028 0 20.369 0 6.003 14.355 6.003 32.001 6.003 49.645 20.369 64 38.028 64a32.086 32.086 0 0 0 20.231-7.197c.027-.021.037-.051.062-.073.107-.098.188-.216.275-.336.069-.096.147-.185.197-.293.053-.108.073-.229.106-.347.034-.14.074-.271.082-.413.002-.036.02-.063.02-.099.002-.094-.039-.174-.051-.264zM10.038 32.001c0-13.069 9.03-24.04 21.173-27.094-5.652 5.713-8.892 13.339-8.892 21.46 0 14.66 12.867 27.688 28.73 30.362-3.993 2.096-8.466 3.237-13.021 3.237-15.433.001-27.99-12.544-27.99-27.965z"/></svg>