<?xml version="1.0" ?><svg id="Layer_1" style="enable-background:new 0 0 100 100;" version="1.1" viewBox="0 0 100 100" xml:space="preserve" xmlns="http://www.w3.org/2000/svg" xmlns:xlink="http://www.w3.org/1999/xlink"><path d="M100,63.4l-1.2,0.5c-5.4,2-11.3,3.2-17.4,3.2c-27.6,0-50.1-22.6-50.1-50.5c0-5.4,0.9-10.5,2.4-15.4L34.1,0l-1.2,0.4  C13.7,7.9,0,26.6,0,48.5C0,76.9,22.9,100,51.1,100c22.6,0,41.8-14.8,48.5-35.3L100,63.4z M51.1,99C23.5,99,1,76.4,1,48.5  C1,27.3,14.1,9.1,32.5,1.7c-1.4,4.7-2.2,9.7-2.2,14.9c0,28.4,22.9,51.5,51.1,51.5c6,0,11.7-1.1,17-3C91.6,84.8,73,99,51.1,99z"/></svg>