<?xml version="1.0" encoding="UTF-8"?>
<svg width="20px" height="20px" viewBox="0 0 20 20" version="1.1" xmlns="http://www.w3.org/2000/svg" xmlns:xlink="http://www.w3.org/1999/xlink">
    <!-- Generator: sketchtool 50.2 (55047) - http://www.bohemiancoding.com/sketch -->
    <title>98CC5493-DCE3-4122-9907-7C231CD28894</title>
    <desc>Created with sketchtool.</desc>
    <defs>
        <path d="M16.86925,13.058 L16.86825,13.058 C16.62425,12.929 16.32125,13.022 16.19225,13.266 C14.97525,15.57 12.60225,17 9.99925,17 C6.21025,17 3.11425,13.973 3.00225,10.211 L4.14525,11.354 C4.24325,11.453 4.37125,11.5 4.49925,11.5 C4.62725,11.5 4.75525,11.451 4.85325,11.354 C5.04825,11.16 5.04825,10.842 4.85325,10.647 L2.85325,8.647 C2.65825,8.453 2.34125,8.453 2.14625,8.647 L0.14625,10.647 C-0.04875,10.842 -0.04875,11.16 0.14625,11.354 C0.34125,11.549 0.65825,11.549 0.85325,11.354 L2.00225,10.205 C2.05325,12.265 2.88025,14.196 4.34325,15.658 C5.85425,17.168 7.86325,18 10.00025,18 C12.97425,18 15.68625,16.366 17.07725,13.735 C17.20625,13.491 17.11325,13.188 16.86925,13.058 M19.85425,8.647 L19.85325,8.647 C19.65825,8.451 19.34125,8.451 19.14625,8.647 L17.99725,9.795 C17.94625,7.736 17.11925,5.805 15.65625,4.343 C14.14525,2.832 12.13625,2 9.99925,2 C7.02525,2 4.31325,3.635 2.92225,6.266 C2.79325,6.51 2.88625,6.813 3.13025,6.943 C3.37425,7.072 3.67725,6.979 3.80625,6.735 C5.02325,4.431 7.39625,3 9.99925,3 C13.78825,3 16.88425,6.028 16.99625,9.789 L15.85325,8.647 C15.65825,8.451 15.34125,8.451 15.14625,8.647 C14.95125,8.841 14.95125,9.159 15.14625,9.354 L17.14625,11.354 C17.24425,11.451 17.37225,11.499 17.50025,11.499 C17.62825,11.499 17.75625,11.451 17.85425,11.354 L19.85425,9.354 C20.04925,9.159 20.04925,8.841 19.85425,8.647" id="path-1"></path>
    </defs>
    <g id="Symbols" stroke="none" stroke-width="1" fill="none" fill-rule="evenodd">
        <g id="reload">
            <mask id="mask-2" fill="white">
                <use xlink:href="#path-1"></use>
            </mask>
            <use id="Fill-1" fill="#444444" xlink:href="#path-1"></use>
            <g id="Inputs/imput-dark" mask="url(#mask-2)" fill="#444444">
                <rect id="bkg" x="0" y="0" width="20" height="20"></rect>
            </g>
        </g>
    </g>
</svg>