<?xml version="1.0" encoding="iso-8859-1"?>
<!-- Generator: Adobe Illustrator 19.0.0, SVG Export Plug-In . SVG Version: 6.00 Build 0)  -->
<svg version="1.1" id="Layer_1" xmlns="http://www.w3.org/2000/svg" xmlns:xlink="http://www.w3.org/1999/xlink" x="0px" y="0px"
	 viewBox="0 0 248.435 248.435" style="enable-background:new 0 0 248.435 248.435;" xml:space="preserve">
<path id="XMLID_6_" d="M102.808,73.51l0.016-58.487c0.002-6.067-3.651-11.538-9.256-13.86C87.967-1.16,81.514,0.12,77.221,4.409
	L4.396,77.195c-5.859,5.856-5.862,15.354-0.006,21.213l72.786,72.826c2.869,2.872,6.708,4.397,10.612,4.397
	c1.932,0,3.879-0.373,5.733-1.141c5.605-2.32,9.262-7.789,9.264-13.856l0.015-56.966c64.991,7.454,115.635,62.793,115.635,129.749
	c0,8.284,6.716,15,15,15c8.284,0,15-6.716,15-15C248.435,149.908,184.37,81.092,102.808,73.51z"/>
<g>
</g>
<g>
</g>
<g>
</g>
<g>
</g>
<g>
</g>
<g>
</g>
<g>
</g>
<g>
</g>
<g>
</g>
<g>
</g>
<g>
</g>
<g>
</g>
<g>
</g>
<g>
</g>
<g>
</g>
</svg>
